<?xml version="1.0" standalone="no"?>
<!DOCTYPE svg PUBLIC "-//W3C//DTD SVG 20010904//EN"
 "http://www.w3.org/TR/2001/REC-SVG-20010904/DTD/svg10.dtd">
<svg version="1.0" xmlns="http://www.w3.org/2000/svg"
 width="390.000000pt" height="241.000000pt" viewBox="0 0 390.000000 241.000000"
 preserveAspectRatio="xMidYMid meet">

<g transform="translate(0.000000,241.000000) scale(0.100000,-0.100000)"
fill="#000000" stroke="none">
<path d="M427 1470 c-57 -11 -62 -21 -62 -118 0 -79 3 -94 33 -155 l34 -68
-34 -62 c-31 -58 -33 -68 -33 -157 0 -89 2 -99 34 -158 39 -72 88 -120 163
-159 47 -25 64 -28 148 -28 82 0 103 4 152 27 66 31 130 93 164 160 19 37 35
53 72 72 58 30 126 101 155 164 33 71 31 218 -3 287 -90 184 -329 260 -491
156 l-44 -28 -50 28 c-77 42 -156 55 -238 39z m343 -225 c48 -25 70 -62 70
-118 0 -44 -4 -53 -39 -88 -33 -33 -45 -39 -82 -39 -56 0 -106 30 -125 75 -19
46 -18 73 4 114 33 62 111 87 172 56z"/>
<path d="M670 1170 c-24 -24 -25 -48 -4 -78 20 -29 79 -31 94 -3 36 69 -36
135 -90 81z"/>
<path d="M1653 1430 c-102 -61 -101 -287 0 -349 63 -38 150 -30 203 20 l24 22
0 -23 c0 -42 -23 -101 -48 -120 -53 -42 -156 -34 -188 15 -17 27 -54 34 -54
11 0 -7 10 -26 22 -41 62 -80 227 -72 280 14 22 34 23 48 26 249 3 209 3 212
-17 212 -16 0 -21 -6 -21 -27 l0 -26 -22 20 c-37 33 -64 43 -120 43 -35 0 -64
-7 -85 -20z m157 -35 c80 -41 91 -193 19 -264 -26 -26 -38 -31 -81 -31 -41 0
-54 5 -78 28 -70 70 -59 225 18 266 35 20 86 20 122 1z"/>
<path d="M2100 1431 c-52 -28 -84 -97 -84 -180 1 -73 16 -111 61 -153 53 -50
151 -55 212 -11 98 71 93 273 -8 340 -44 30 -131 31 -181 4z m149 -34 c38 -19
62 -69 63 -129 2 -113 -39 -168 -124 -168 -41 0 -54 5 -78 28 -36 37 -54 97
-46 154 8 53 38 106 69 118 32 13 88 12 116 -3z"/>
<path d="M2514 1431 c-46 -28 -74 -94 -74 -172 0 -77 23 -133 71 -173 30 -26
38 -28 101 -24 58 3 72 8 98 33 l30 29 0 -32 c0 -45 -24 -97 -53 -117 -58 -37
-158 -26 -179 21 -12 26 -58 34 -58 10 0 -23 42 -68 76 -82 47 -20 121 -17
172 6 33 15 47 29 62 62 17 38 20 67 20 246 0 195 -1 202 -20 202 -15 0 -20
-7 -20 -27 l0 -26 -22 20 c-37 33 -64 43 -120 43 -34 0 -64 -7 -84 -19z m156
-34 c33 -16 70 -91 70 -142 0 -49 -30 -117 -61 -139 -29 -20 -91 -21 -128 -1
-58 30 -85 160 -47 233 29 55 107 79 166 49z"/>
<path d="M2964 1436 c-62 -27 -100 -113 -91 -207 10 -108 73 -171 171 -171 66
0 109 21 144 74 24 37 27 51 27 122 0 93 -18 136 -75 173 -39 27 -125 31 -176
9z m141 -38 c83 -38 86 -241 4 -283 -96 -50 -189 19 -189 140 0 119 88 187
185 143z"/>
<path d="M3368 1435 c-28 -16 -58 -62 -58 -90 0 -22 38 -19 45 5 18 57 132 83
175 40 22 -22 27 -72 8 -88 -7 -6 -49 -15 -93 -21 -77 -11 -117 -28 -142 -60
-15 -20 -17 -85 -3 -112 31 -56 147 -69 214 -24 37 25 38 25 43 5 6 -21 43
-36 68 -26 22 8 19 36 -4 36 -28 0 -31 18 -31 160 0 121 -1 130 -24 157 -21
25 -31 28 -97 30 -53 2 -82 -1 -101 -12z m182 -223 c0 -35 -6 -54 -21 -71 -62
-66 -191 -50 -191 23 0 55 23 65 205 95 4 0 7 -21 7 -47z"/>
<path d="M2650 755 c0 -32 -2 -35 -19 -25 -30 16 -50 12 -76 -15 -50 -49 -20
-155 44 -155 15 0 32 5 39 12 9 9 12 9 12 0 0 -7 9 -12 20 -12 19 0 20 7 20
115 0 108 -1 115 -20 115 -16 0 -20 -7 -20 -35z m-12 -67 c17 -17 15 -64 -4
-83 -20 -20 -35 -15 -52 16 -27 48 20 103 56 67z"/>
<path d="M2730 770 c0 -15 7 -20 25 -20 18 0 25 5 25 20 0 15 -7 20 -25 20
-18 0 -25 -5 -25 -20z"/>
<path d="M2240 755 c0 -14 -4 -25 -10 -25 -5 0 -10 -7 -10 -15 0 -8 5 -15 10
-15 6 0 10 -24 10 -54 0 -58 16 -86 50 -86 26 0 33 16 15 33 -20 21 -20 103 0
111 8 3 15 10 15 16 0 5 -7 10 -15 10 -9 0 -15 9 -15 25 0 20 -5 25 -25 25
-20 0 -25 -5 -25 -25z"/>
<path d="M2082 724 c-25 -17 -29 -56 -9 -73 8 -6 28 -14 46 -17 37 -8 49 -22
30 -35 -19 -12 -25 -11 -43 6 -16 17 -56 20 -56 5 0 -23 41 -50 76 -50 51 0
74 15 74 50 0 32 -24 53 -72 64 -16 4 -28 11 -28 16 0 13 47 13 55 0 9 -15 45
-12 45 4 0 20 -39 46 -70 46 -14 0 -36 -7 -48 -16z"/>
<path d="M2852 733 c-19 -7 -42 -58 -42 -93 0 -44 39 -80 85 -80 51 0 85 36
85 90 0 53 -34 90 -82 89 -18 0 -39 -3 -46 -6z m78 -58 c11 -28 -1 -70 -22
-78 -27 -9 -48 13 -48 52 0 44 5 51 37 51 16 0 27 -8 33 -25z"/>
<path d="M2350 656 c0 -48 4 -77 13 -84 7 -6 40 -10 73 -9 l59 3 3 82 c3 82 3
82 -23 82 -24 0 -25 -2 -25 -60 0 -47 -4 -61 -18 -69 -29 -16 -42 6 -42 71 0
51 -2 58 -20 58 -18 0 -20 -7 -20 -74z"/>
<path d="M2732 648 c3 -75 5 -83 23 -83 18 0 20 8 23 83 l3 82 -26 0 -26 0 3
-82z"/>
</g>
</svg>
